# xmcd
# 
# Track frame offsets:
#     150
#     16545
#     28624
#     38443
#     50844
#     66717
#     76452
#     89094
#     107943
#     122388
# 
# Disc length: 1867
# 
# Revision: 1
# Processed by: cddbd v1.5.2PL0 Copyright (c) Steve Scherf et al.
# Submitted via: BonkEnc v1.0.6
# 
DISCID=7f07490a
DTITLE=Various Artist - Best Of Country Disc 2
DYEAR=2006
DGENRE=Country
TTITLE0=Janie Fricke - It Ain't Easy Bein' Easy
TTITLE1=Freddy Fender - Before the Next Teardrop Falls
TTITLE2=Lynn Anderson - What a Man My Man Is
TTITLE3=T.G.Sheppard - Trying to Beat the Morning Home
TTITLE4=B.J. Thomas - (Hey Won't You Play) Another Somebody Done Somebody Wrong Song
TTITLE5=Mickey Gilley - True Love Ways
TTITLE6=Exile - Give Me One More Chance
TTITLE7=Juice Newton - You Make Me Want to Make You Mine
TTITLE8=Doug Stone - Why Didn't I Think of That
TTITLE9=T. Graham Brown - Don't Go to Strangers
EXTD=Disc 2
EXTT0=
EXTT1=
EXTT2=
EXTT3=
EXTT4=
EXTT5=
EXTT6=
EXTT7=
EXTT8=
EXTT9=
PLAYORDER=
